<svg width="19" height="19" viewBox="0 0 19 19" fill="none" xmlns="http://www.w3.org/2000/svg">
<path d="M18.6148 16.758L14.5995 12.7422C15.5754 11.3848 16.112 9.76268 16.112 8.05523C16.112 5.9045 15.2747 3.88183 13.7517 2.36022C12.232 0.839278 10.208 0 8.05583 0C5.90437 0 3.88097 0.837308 2.35997 2.36022C0.83897 3.88051 0.000976562 5.90384 0.000976562 8.05523C0.000976562 10.2066 0.838314 12.2293 2.35997 13.7516C3.88097 15.2725 5.90371 16.1118 8.05583 16.1118C9.76268 16.1118 11.3835 15.5779 12.7423 14.5994L16.7576 18.6152C17.015 18.8719 17.3499 19 17.6862 19C18.0231 19 18.3587 18.8719 18.6148 18.6152C19.1277 18.1016 19.1277 17.2709 18.6148 16.758ZM4.21787 11.8937C3.19205 10.8679 2.62792 9.50394 2.62792 8.05458C2.62792 6.60521 3.19205 5.24253 4.21787 4.21675C5.24303 3.19096 6.60576 2.62619 8.05583 2.62619C9.5059 2.62619 10.8693 3.19096 11.8944 4.21675C12.9203 5.24253 13.4851 6.60587 13.4851 8.05523C13.4851 9.5046 12.9209 10.8679 11.8944 11.8944C10.8686 12.9202 9.50656 13.4836 8.05583 13.4836C6.6051 13.4836 5.24172 12.9188 4.21787 11.8937Z" fill="#E3E4E4"/>
</svg>
