<svg width="27" height="27" viewBox="0 0 27 27" fill="none" xmlns="http://www.w3.org/2000/svg">
<g clip-path="url(#clip0)">
<path d="M0 20.25V25.875C0 26.496 0.504 27 1.125 27H6.75C7.371 27 7.875 26.496 7.875 25.875V20.25C7.875 19.629 7.371 19.125 6.75 19.125H1.125C0.504 19.125 0 19.629 0 20.25Z" fill="#DEDEDE"/>
<path d="M6.75 0H1.125C0.504 0 0 0.504 0 1.125V6.75C0 7.371 0.504 7.875 1.125 7.875H6.75C7.371 7.875 7.875 7.371 7.875 6.75V1.125C7.875 0.504 7.371 0 6.75 0Z" fill="#DEDEDE"/>
<path d="M6.75 9.5625H1.125C0.504 9.5625 0 10.0665 0 10.6875V16.3125C0 16.9335 0.504 17.4375 1.125 17.4375H6.75C7.371 17.4375 7.875 16.9335 7.875 16.3125V10.6875C7.875 10.0665 7.371 9.5625 6.75 9.5625Z" fill="#DEDEDE"/>
<path d="M25.875 0H10.6875C10.0665 0 9.5625 0.504 9.5625 1.125V6.75C9.5625 7.371 10.0665 7.875 10.6875 7.875H25.875C26.496 7.875 27 7.371 27 6.75V1.125C27 0.504 26.496 0 25.875 0Z" fill="#DEDEDE"/>
<path d="M10.6875 17.4375H25.875C26.496 17.4375 27 16.9335 27 16.3125V10.6875C27 10.0665 26.496 9.5625 25.875 9.5625H10.6875C10.0665 9.5625 9.5625 10.0665 9.5625 10.6875V16.3125C9.5625 16.9335 10.0665 17.4375 10.6875 17.4375Z" fill="#DEDEDE"/>
<path d="M10.6875 27H25.875C26.496 27 27 26.496 27 25.875V20.25C27 19.629 26.496 19.125 25.875 19.125H10.6875C10.0665 19.125 9.5625 19.629 9.5625 20.25V25.875C9.5625 26.496 10.0665 27 10.6875 27Z" fill="#DEDEDE"/>
</g>
<defs>
<clipPath id="clip0">
<rect width="27" height="27" fill="white"/>
</clipPath>
</defs>
</svg>
