<svg width="27" height="27" viewBox="0 0 27 27" fill="none" xmlns="http://www.w3.org/2000/svg">
<g clip-path="url(#clip0)">
<path d="M11.4231 0H1.03847C0.464919 0 0 0.464919 0 1.03847V11.4231C0 11.9967 0.464919 12.4616 1.03847 12.4616H11.4231C11.9967 12.4616 12.4616 11.9967 12.4616 11.4231V1.03847C12.4616 0.464919 11.9967 0 11.4231 0Z" fill="#DEDEDE"/>
<path d="M25.9615 0H15.5769C15.0033 0 14.5384 0.464919 14.5384 1.03847V11.4231C14.5384 11.9967 15.0033 12.4616 15.5769 12.4616H25.9615C26.5351 12.4616 27 11.9967 27 11.4231V1.03847C27 0.464919 26.5351 0 25.9615 0Z" fill="#DEDEDE"/>
<path d="M11.4231 14.5385H1.03847C0.464919 14.5385 0 15.0034 0 15.577V25.9616C0 26.5352 0.464919 27.0001 1.03847 27.0001H11.4231C11.9967 27.0001 12.4616 26.5352 12.4616 25.9616V15.577C12.4616 15.0034 11.9967 14.5385 11.4231 14.5385Z" fill="#DEDEDE"/>
<path d="M25.9615 14.5385H15.5769C15.0033 14.5385 14.5384 15.0034 14.5384 15.577V25.9616C14.5384 26.5352 15.0033 27.0001 15.5769 27.0001H25.9615C26.5351 27.0001 27 26.5352 27 25.9616V15.577C27 15.0034 26.5351 14.5385 25.9615 14.5385Z" fill="#DEDEDE"/>
</g>
<defs>
<clipPath id="clip0">
<rect width="27" height="27" fill="white"/>
</clipPath>
</defs>
</svg>
